# Blender 4.0.0
# www.blender.org
mtllib skybox.mtl
o Cube
v -36.206676 8.410469 -13.311583
v -37.535610 6.915832 -13.311583
v -36.206676 8.410469 -15.311583
v -37.535610 6.915832 -15.311583
v -37.701313 9.739401 -13.311583
v -39.030247 8.244764 -13.311583
v -37.701313 9.739401 -15.311583
v -39.030247 8.244764 -15.311583
vn 0.7473 -0.6645 -0.0000
vn -0.0000 -0.0000 -1.0000
vn -0.7473 0.6645 -0.0000
vn -0.0000 -0.0000 1.0000
vn 0.6645 0.7473 -0.0000
vn -0.6645 -0.7473 -0.0000
vt 1.000000 0.333333
vt 1.000000 0.666667
vt 0.750000 0.666667
vt 0.750000 0.333333
vt 0.500000 0.666667
vt 0.500000 0.333333
vt 0.250000 0.666667
vt 0.250000 0.333333
vt 0.000000 0.666667
vt 0.000000 0.333333
vt 0.500000 0.000000
vt 0.250000 0.000000
vt 0.500000 1.000000
vt 0.250000 1.000000
s 0
usemtl skybox.002
f 1/1/1 2/2/1 4/3/1 3/4/1
f 3/4/2 4/3/2 8/5/2 7/6/2
f 7/6/3 8/5/3 6/7/3 5/8/3
f 5/8/4 6/7/4 2/9/4 1/10/4
f 3/11/5 7/6/5 5/8/5 1/12/5
f 8/5/6 4/13/6 2/14/6 6/7/6
